<svg xmlns="http://www.w3.org/2000/svg" width="127.68" height="132" preserveAspectRatio="xMidYMid meet" viewBox="0 0 256 296">
<path d="M6 19.2308C5.6615 19.2308 5.37175 19.1103 5.13075 18.8693C4.88975 18.6283 4.76925 18.3385 4.76925 18C4.76925 17.6615 4.88975 17.3718 5.13075 17.1308C5.37175 16.8898 5.6615 16.7693 6 16.7693C6.3385 16.7693 6.62825 16.8898 6.86925 17.1308C7.11025 17.3718 7.23075 17.6615 7.23075 18C7.23075 18.3385 7.11025 18.6283 6.86925 18.8693C6.62825 19.1103 6.3385 19.2308 6 19.2308ZM12 19.2308C11.6615 19.2308 11.3718 19.1103 11.1308 18.8693C10.8898 18.6283 10.7692 18.3385 10.7692 18C10.7692 17.6615 10.8898 17.3718 11.1308 17.1308C11.3718 16.8898 11.6615 16.7693 12 16.7693C12.3385 16.7693 12.6283 16.8898 12.8693 17.1308C13.1103 17.3718 13.2307 17.6615 13.2307 18C13.2307 18.3385 13.1103 18.6283 12.8693 18.8693C12.6283 19.1103 12.3385 19.2308 12 19.2308ZM18 19.2308C17.6615 19.2308 17.3717 19.1103 17.1307 18.8693C16.8897 18.6283 16.7692 18.3385 16.7692 18C16.7692 17.6615 16.8897 17.3718 17.1307 17.1308C17.3717 16.8898 17.6615 16.7693 18 16.7693C18.3385 16.7693 18.6283 16.8898 18.8693 17.1308C19.1103 17.3718 19.2307 17.6615 19.2307 18C19.2307 18.3385 19.1103 18.6283 18.8693 18.8693C18.6283 19.1103 18.3385 19.2308 18 19.2308ZM6 13.2308C5.6615 13.2308 5.37175 13.1103 5.13075 12.8693C4.88975 12.6283 4.76925 12.3385 4.76925 12C4.76925 11.6615 4.88975 11.3718 5.13075 11.1308C5.37175 10.8898 5.6615 10.7693 6 10.7693C6.3385 10.7693 6.62825 10.8898 6.86925 11.1308C7.11025 11.3718 7.23075 11.6615 7.23075 12C7.23075 12.3385 7.11025 12.6283 6.86925 12.8693C6.62825 13.1103 6.3385 13.2308 6 13.2308ZM12 13.2308C11.6615 13.2308 11.3718 13.1103 11.1308 12.8693C10.8898 12.6283 10.7692 12.3385 10.7692 12C10.7692 11.6615 10.8898 11.3718 11.1308 11.1308C11.3718 10.8898 11.6615 10.7693 12 10.7693C12.3385 10.7693 12.6283 10.8898 12.8693 11.1308C13.1103 11.3718 13.2307 11.6615 13.2307 12C13.2307 12.3385 13.1103 12.6283 12.8693 12.8693C12.6283 13.1103 12.3385 13.2308 12 13.2308ZM18 13.2308C17.6615 13.2308 17.3717 13.1103 17.1307 12.8693C16.8897 12.6283 16.7692 12.3385 16.7692 12C16.7692 11.6615 16.8897 11.3718 17.1307 11.1308C17.3717 10.8898 17.6615 10.7693 18 10.7693C18.3385 10.7693 18.6283 10.8898 18.8693 11.1308C19.1103 11.3718 19.2307 11.6615 19.2307 12C19.2307 12.3385 19.1103 12.6283 18.8693 12.8693C18.6283 13.1103 18.3385 13.2308 18 13.2308ZM6 7.23079C5.6615 7.23079 5.37175 7.11029 5.13075 6.86929C4.88975 6.62829 4.76925 6.33854 4.76925 6.00004C4.76925 5.66154 4.88975 5.37179 5.13075 5.13079C5.37175 4.88979 5.6615 4.76929 6 4.76929C6.3385 4.76929 6.62825 4.88979 6.86925 5.13079C7.11025 5.37179 7.23075 5.66154 7.23075 6.00004C7.23075 6.33854 7.11025 6.62829 6.86925 6.86929C6.62825 7.11029 6.3385 7.23079 6 7.23079ZM12 7.23079C11.6615 7.23079 11.3718 7.11029 11.1308 6.86929C10.8898 6.62829 10.7692 6.33854 10.7692 6.00004C10.7692 5.66154 10.8898 5.37179 11.1308 5.13079C11.3718 4.88979 11.6615 4.76929 12 4.76929C12.3385 4.76929 12.6283 4.88979 12.8693 5.13079C13.1103 5.37179 13.2307 5.66154 13.2307 6.00004C13.2307 6.33854 13.1103 6.62829 12.8693 6.86929C12.6283 7.11029 12.3385 7.23079 12 7.23079ZM18 7.23079C17.6615 7.23079 17.3717 7.11029 17.1307 6.86929C16.8897 6.62829 16.7692 6.33854 16.7692 6.00004C16.7692 5.66154 16.8897 5.37179 17.1307 5.13079C17.3717 4.88979 17.6615 4.76929 18 4.76929C18.3385 4.76929 18.6283 4.88979 18.8693 5.13079C19.1103 5.37179 19.2307 5.66154 19.2307 6.00004C19.2307 6.33854 19.1103 6.62829 18.8693 6.86929C18.6283 7.11029 18.3385 7.23079 18 7.23079Z" fill="#24242B"/>
</svg>
